Evangelion: 2.22
You Can (Not) Advance

.: INFO :.

Original Title: Evangerion Shin GekijÅban: Ha
Country: Japan
Year: 2009
Director: Hideaki Anno
Production: Gainax
Distribution: Studio Khara Digital-bu
Date of Release: 2009

.: CAST :.

Megumi Ogata: Shinji Ikari
Megumi Hayashibara: Rei Ayanami
Kotono Mitsuishi: Misato Katsuragi
Maaya Sakamoto: Mari Illustrious Makinami

.: STORYLINE :.

Evangelion: 2.0 You Can (Not) Advance (ãƒ±ãƒ´ã‚¡ãƒ³ã‚²ãƒªãƒ²ãƒ³æ–°åŠ‡å ´ç‰ˆ: ç ´, Evangerion Shin GekijÅban: Ha?, lit. \\\"Evangelion New Theatrical Edition: Break\\\") is a 2009 Japanese animated film directed by Kazuya Tsurumaki and Masayuki, and written by Hideaki Anno. It is the second of four films released in the Rebuild of Evangelion tetralogy based on the original anime series Neon Genesis Evangelion. It was produced and co-distributed by Hideaki Anno\\\'s Studio Khara.

.: SPECIFICS :.

SUBS: Italian, English, French, Portuguese, Spanish

General

Unique ID : 187818066253308340686461913582004629632 (0x8D4C719C2EE0BA8F8882234A52C87080)
Format : Matroska
File size : 1.46 GiB
Duration : 1h 52mn
Overall bit rate : 1 865 Kbps
Encoded date : UTC 2011-04-15 18:46:00
Writing application : mkvmerge v4.6.0 (\\\'Still Crazy After All These Years\\\') built on Mar 10 2011 02:50:32
Writing library : libebml v1.2.0 + libmatroska v1.1.0

Video

ID : 5
Format : AVC
Format/Info : Advanced Video Codec
Format profile : Main@L3.1
Format settings, CABAC : Yes
Format settings, ReFrames : 2 frames
Muxing mode : Header stripping
Codec ID : V_MPEG4/ISO/AVC
Duration : 1h 52mn
Bit rate : 1 380 Kbps
Width : 1 280 pixels
Height : 720 pixels
Display aspect ratio : 16:9
Frame rate mode : Variable
Frame rate : 23.810 fps
Color space : YUV
Chroma subsampling : 4:2:0
Bit depth : 8 bits
Scan type : Progressive
Bits/(Pixel*Frame) : 0.063
Stream size : 1.08 GiB (74%)
Writing library : x264 core 98
Encoding settings : cabac=1 / ref=2 / deblock=1:0:0 / analyse=0x1:0x111 / me=hex / subme=6 / psy=1 / psy_rd=1,00:0,00 / mixed_ref=0 / me_range=16 / chroma_me=1 / trellis=0 / 8x8dct=0 / cqm=0 / deadzone=21,11 / fast_pskip=1 / chroma_qp_offset=-2 / threads=6 / sliced_threads=0 / nr=0 / decimate=1 / interlaced=0 / constrained_intra=0 / bframes=2 / b_pyramid=0 / b_adapt=1 / b_bias=0 / direct=1 / weightb=0 / weightp=2 / keyint=244 / keyint_min=24 / scenecut=40 / intra_refresh=0 / rc_lookahead=40 / rc=crf / mbtree=1 / crf=20,0 / qcomp=0,60 / qpmin=10 / qpmax=51 / qpstep=4 / ip_ratio=1,40 / aq=1:1,00
Color primaries : BT.709-5, BT.1361, IEC 61966-2-4, SMPTE RP177
Transfer characteristics : BT.709-5, BT.1361
Matrix coefficients : BT.709-5, BT.1361, IEC 61966-2-4 709, SMPTE RP177

Audio

ID : 6
Format : AC-3
Format/Info : Audio Coding 3
Mode extension : CM (complete main)
Muxing mode : Header stripping
Codec ID : A_AC3
Duration : 1h 52mn
Bit rate mode : Constant
Bit rate : 448 Kbps
Channel(s) : 6 channels
Channel positions : Front: L C R, Side: L R, LFE
Sampling rate : 48.0 KHz
Bit depth : 16 bits
Compression mode : Lossy
Stream size : 359 MiB (24%)
Title : Jpn
Language : Japanese

Text #1
ID : 1
Format : ASS
Codec ID : S_TEXT/ASS
Codec ID/Info : Advanced Sub Station Alpha
Compression mode : Lossless
Title : Eng
Language : English

Text #2
ID : 2
Format : UTF-8
Codec ID : S_TEXT/UTF8
Codec ID/Info : UTF-8 Plain Text
Title : Fre
Language : French

Text #3
ID : 3
Format : UTF-8
Codec ID : S_TEXT/UTF8
Codec ID/Info : UTF-8 Plain Text
Title : Por
Language : Portuguese

Text #4
ID : 4
Format : UTF-8
Codec ID : S_TEXT/UTF8
Codec ID/Info : UTF-8 Plain Text
Title : Spa
Language : Spanish

Text #5
ID : 7
Format : VobSub
Muxing mode : zlib
Codec ID : S_VOBSUB
Codec ID/Info : The same subtitle format used on DVDs
Title : Ita ver.1
Language : Italian

Text #6
ID : 8
Format : VobSub
Muxing mode : zlib
Codec ID : S_VOBSUB
Codec ID/Info : The same subtitle format used on DVDs
Title : Ita ver.2
Language : Italian